<svg xmlns="http://www.w3.org/2000/svg" width="52.307" height="46.315" viewBox="0 0 52.307 46.315"><defs><style>.a{fill:#962071;}</style></defs><path class="a" d="M44.667,28.454A31.889,31.889,0,0,1,41.63,41.614c-1.94,4.3-4.724,8.014-8.1,9.7a5.188,5.188,0,0,0,.084-1.181A6.409,6.409,0,0,0,27.2,43.723a6.24,6.24,0,0,0-3.037.759,10.037,10.037,0,0,1-7.424-3.628A29.207,29.207,0,0,1,13.2,29.044a15.737,15.737,0,0,1,31.467-.591Z" transform="translate(-2.905 -5.845)"/><path class="a" d="M53.3,32a7.49,7.49,0,0,1-7.424,7.424,4.81,4.81,0,0,1-1.1-.084,1.773,1.773,0,0,1-1.265-2.362,30.981,30.981,0,0,0,1.6-9.955A17.979,17.979,0,0,0,39.638,14.37,17.345,17.345,0,0,0,26.815,9.393,17.979,17.979,0,0,0,14.16,14.877,17.345,17.345,0,0,0,9.183,27.7a29.241,29.241,0,0,0,2.025,9.111A1.745,1.745,0,0,1,10.2,39.089a11.261,11.261,0,0,0,1.434,2.447c1.94,2.7,5.568,5.821,12.148,6.158a1.848,1.848,0,0,1,1.687-.928,2.025,2.025,0,1,1,0,4.049A2.168,2.168,0,0,1,23.693,49.8c-7.508-.253-11.726-3.965-13.92-7.171a17.106,17.106,0,0,1-1.94-3.459h-1.1A7.418,7.418,0,0,1,5.049,25.338C5.471,13.864,15.679,4.5,27.489,4.5A22.047,22.047,0,0,1,49.424,25.506a7.324,7.324,0,0,1,2.868,2.7A7.94,7.94,0,0,1,53.3,32Z" transform="translate(-0.997 -4.5)"/><path class="a" d="M41.661,41.714A33.286,33.286,0,0,0,44.7,28.553a15.652,15.652,0,1,0-31.3.591,23.674,23.674,0,0,0,3.543,11.811" transform="translate(-2.936 -5.86)"/></svg>